<?xml version="1.0" encoding="utf-8"?>
<svg viewBox="186.025 92.795 45 90" xmlns="http://www.w3.org/2000/svg" xmlns:bx="https://boxy-svg.com">
  <linearGradient id='gradient'>
    <stop id='cruiserRed' offset='0' stop-color='rgba(255, 0, 0, 0.671)'/>
    <stop offset='0%' stop-color='rgb(216, 216, 216)'/>
  </linearGradient>
  <linearGradient id='gradientTop'>
    <stop id='cruiserRedTop' offset='0' stop-color='rgba(255, 0, 0, 0.671)'/>
    <stop offset='0%' stop-color='rgb(216, 216, 216)'/>
  </linearGradient>
  <path fill="url(#gradient)" d="M 163.205 130.83 L 163.522 148.138 L 249.318 146.439 L 251.866 126.902 L 226.064 132.636 C 225.571 141.272 162.305 144.266 163.205 130.83 Z" transform="matrix(0, 1, -1, 0, 345.050751, -70.010742)"/>
  <path fill="url(#gradientTop)" d="M 199.861 131.451 C 199.861 131.451 203.51526221137843 128.53720627706196 203.676 126.518 C 203.89984602648528 123.70602090254768 196.56352090098684 118.19962615933626 197.884 115.901 C 200.12351327665112 112.00256358723259 230.6062968826492 111.36023638988421 232.657 114.909 C 233.87031038762947 117.00864656266633 225.89864398235704 122.42942532614333 226.278 125.282 C 226.59751168202388 127.68457407225473 233.08669360719026 129.8828878142432 232.569 131.202 C 231.55659650093762 133.781660582954 199.533 131.435 199.533 131.435" transform="matrix(0, 1, -1, 0, 337.749329, -92.758308)" bx:d="M 199.861 131.451 R 203.676 126.518 R 197.884 115.901 R 232.657 114.909 R 226.278 125.282 R 232.569 131.202 R 199.533 131.435 1@c5da8c01"/>
</svg>