<?xml version="1.0" encoding="utf-8"?>
<svg viewBox="188.432 123.941 45 45" xmlns="http://www.w3.org/2000/svg" xmlns:bx="https://boxy-svg.com">
  <linearGradient id='gradient'>
    <stop id='smallshipRed' offset='0' stop-color='rgba(255, 0, 0, 0.671)'/>
    <stop offset='0%' stop-color='rgb(216, 216, 216)'/>
  </linearGradient>

  <path fill="url(#gradient)" d="M 188.885 141.233 C 188.885 141.233 189.94371792102137 152.0075895281918 193.821 154.74 C 199.69001323664497 158.8760295434616 220.53639838575572 159.18363289083726 226.77 154.982 C 231.1878506375374 152.00423727241935 233.42373515605328 139.90923149139832 232.867 139.596 C 232.4477676042367 139.36013059757477 230.4663031614712 145.4375517467725 227.205 147.08 C 221.1412135149174 150.13382696034785 200.92170559446376 150.06786233340827 194.764 147.403 C 191.59882429774984 146.03321098067286 188.959 141.096 188.959 141.096" bx:d="M 188.885 141.233 R 193.821 154.74 R 226.77 154.982 R 232.867 139.596 R 227.205 147.08 R 194.764 147.403 R 188.959 141.096 1@768b7039"/>
  <path fill="url(#gradient)" d="M 206.39 149.003 C 205.723 140.977 205.223 134.756 205.223 134.756"/>
  <path fill="url(#gradient)" d="M 205.15 135.23 C 205.15 135.23 213.65235726519893 131.74975078865515 214.194 132.572 C 214.81968690275573 133.52183377286252 206.171 142.26 206.171 142.26" bx:d="M 205.15 135.23 R 214.194 132.572 R 206.171 142.26 1@89718924"/>
</svg>