<?xml version="1.0" encoding="utf-8"?>
<svg viewBox="214.298 191.032 135 45" xmlns="http://www.w3.org/2000/svg" xmlns:bx="https://boxy-svg.com">
  <linearGradient id='gradient'>
    <stop id='submarineRed' offset='0' stop-color='rgba(255, 0, 0, 0.671)'/>
    <stop offset='0%' stop-color='rgb(216, 216, 216)'/>
  </linearGradient>
  <path fill="url(#gradient)" d="M 220.393 195.914 C 220.393 195.914 221.542 206.069 219.933 207.717 C 218.887 208.788 215.767 207.139 214.951 208.031 C 214.12 208.94 214.173 212.274 215.086 213.208 C 216.06 214.204 219.797 212.262 220.971 213.495 C 222.721 215.333 219.316 225 220.966 226.593 C 221.97 227.562 224.774 227.445 225.815 226.419 C 227.466 224.792 224.34 215.448 226.433 214.236 C 228.955 212.776 234.325 220.401 242.217 222.26 C 261.258 226.744 335.449 231.331 345.278 221.465 C 349.196 217.532 348.636 208.075 345.342 205.091 C 340.21 200.441 310.907 213.096 305.807 209.153 C 303.228 207.159 305.978 200.508 304.267 199.11 C 302.927 198.016 299.314 198.232 298.046 199.413 C 296.522 200.833 299.204 206.555 296.969 208.355 C 292.482 211.969 272.696 205.013 260.821 204.915 C 249.302 204.82 231.379 211.418 226.756 207.59 C 224.076 205.371 227.201 197.773 225.504 196.172 C 224.37 195.104 220.393 195.914 220.393 195.914 C 220.393 195.914 220.393 195.914 220.393 195.914" bx:d="M 220.393 195.914 R 219.933 207.717 R 214.951 208.031 R 215.086 213.208 R 220.971 213.495 R 220.966 226.593 R 225.815 226.419 R 226.433 214.236 R 242.217 222.26 R 345.278 221.465 R 345.342 205.091 R 305.807 209.153 R 304.267 199.11 R 298.046 199.413 R 296.969 208.355 R 260.821 204.915 R 226.756 207.59 R 225.504 196.172 R 220.393 195.914 Z 1@88479834"/>
  <line fill="url(#gradient)" x1="300.169" y1="198.368" x2="299.866" y2="196.093"/>
  <line fill="url(#gradient)" x1="302.596" y1="198.216" x2="301.99" y2="194.121"/>
</svg>