<?xml version="1.0" encoding="utf-8"?>
<svg viewBox="254.491 143.103 45 135" xmlns="http://www.w3.org/2000/svg" xmlns:bx="https://boxy-svg.com">
  <linearGradient id='gradient'>
    <stop id='submarineRed' offset='0' stop-color='rgba(255, 0, 0, 0.671)'/>
    <stop offset='0%' stop-color='rgb(216, 216, 216)'/>
  </linearGradient>
  <path fill="url(#gradient)" d="M 219.644 195.165 C 219.644 195.165 220.7925280652858 205.32041261272542 219.184 206.968 C 218.13831722251774 208.0390747250555 215.01807485385837 206.38984625372075 214.202 207.282 C 213.37079034376805 208.1906994964307 213.42387301361893 211.52494495216192 214.337 212.459 C 215.31097865730973 213.4553013851472 219.04829058026078 211.51318506867187 220.222 212.746 C 221.97197542047678 214.58410046297521 218.56678024292208 224.25132585621165 220.217 225.844 C 221.22139624230942 226.81337145394318 224.0245506399149 226.69613378616663 225.066 225.67 C 226.7173095530236 224.0429746363866 223.59072958253836 214.69918168162846 225.684 213.487 C 228.20594285114203 212.0265805048565 233.57587757817817 219.6522788961414 241.468 221.511 C 260.50863391409735 225.99537393585294 334.70015238832167 230.5823187888312 344.529 220.716 C 348.446671498454 216.7833928988644 347.8868789953658 207.32649281501085 344.593 204.342 C 339.4613195952255 199.69232606889054 310.1578811509297 212.34676638675205 305.058 208.404 C 302.4793989659902 206.4104591348595 305.228905593621 199.75871140486257 303.518 198.361 C 302.17845194259354 197.2666663300539 298.5647149298338 197.4834766596496 297.297 198.664 C 295.7725426370663 200.08360740223193 298.45473089170423 205.8061434425914 296.22 207.606 C 291.73290593331757 211.2199141896718 271.94675651831085 204.26404654016366 260.072 204.166 C 248.55271878734797 204.0708885199177 230.62996789308687 210.6690151463979 226.007 206.841 C 223.32664763467054 204.6215535990185 226.45274799031714 197.0237787420691 224.755 195.423 C 223.62179152080793 194.35451630620736 219.644 195.165 219.644 195.165 C 219.64400000000003 195.16500000000002 219.64400000000006 195.16500000000005 219.644 195.165" transform="matrix(0, 1, -1, 0, 491.168854, -69.71315)" bx:d="M 219.644 195.165 R 219.184 206.968 R 214.202 207.282 R 214.337 212.459 R 220.222 212.746 R 220.217 225.844 R 225.066 225.67 R 225.684 213.487 R 241.468 221.511 R 344.529 220.716 R 344.593 204.342 R 305.058 208.404 R 303.518 198.361 R 297.297 198.664 R 296.22 207.606 R 260.072 204.166 R 226.007 206.841 R 224.755 195.423 R 219.644 195.165 Z 1@9fc47f69"/>
  <line fill="url(#gradient)" x1="294.839" y1="230.692" x2="294.536" y2="228.417" transform="matrix(0, 1, -1, 0, 524.242004, -65.132996)"/>
  <line fill="url(#gradient)" x1="296.052" y1="233.878" x2="295.446" y2="229.783" transform="matrix(0, 1, -1, 0, 527.579529, -63.918503)"/>
</svg>