<?xml version="1.0" encoding="utf-8"?>
<svg viewBox="188.432 122.628 45 45" xmlns="http://www.w3.org/2000/svg" xmlns:bx="https://boxy-svg.com">
  <linearGradient id='gradient'>
    <stop id='smallshipRed' offset='0' stop-color='rgba(255, 0, 0, 0.671)'/>
    <stop offset='0%' stop-color='rgb(216, 216, 216)'/>
  </linearGradient>
  <path fill="url(#gradient)" d="M 185.313 137.661 C 185.313 137.661 186.37171792102137 148.4355895281918 190.249 151.168 C 196.118013236645 155.3040295434616 216.96439838575574 155.61163289083726 223.198 151.41 C 227.61585063753736 148.43223727241934 229.8517351560533 136.3372314913983 229.295 136.024 C 228.8757676042367 135.78813059757474 226.8943031614712 141.8655517467725 223.633 143.508 C 217.5692135149174 146.56182696034782 197.34970559446376 146.4958623334083 191.192 143.831 C 188.02682429774984 142.46121098067283 185.387 137.524 185.387 137.524" transform="matrix(0, 1, -1, 0, 352.564087, -62.127762)" bx:d="M 185.313 137.661 R 190.249 151.168 R 223.198 151.41 R 229.295 136.024 R 223.633 143.508 R 191.192 143.831 R 185.387 137.524 1@fbddaa98"/>
  <path fill="url(#gradient)" d="M 214.841 147.231 C 214.174 139.205 213.674 132.984 213.674 132.984" transform="matrix(0, 1, -1, 0, 354.36499, -74.150002)"/>
  <path fill="url(#gradient)" d="M 214.245 141.866 C 214.245 141.866 222.74735726519887 138.38575078865514 223.289 139.208 C 223.91468690275573 140.15783377286252 215.266 148.896 215.266 148.896" transform="matrix(0, 1, -1, 0, 362.772339, -74.794052)" bx:d="M 214.245 141.866 R 223.289 139.208 R 215.266 148.896 1@db97b5fa"/>
</svg>