<?xml version="1.0" encoding="utf-8"?>
<svg id='battleshipImage' viewBox="206.92 135.033 225 45" xmlns="http://www.w3.org/2000/svg">
  <linearGradient id='gradient'>
    <stop id='battleshipRed' offset='0' stop-color='rgba(255, 0, 0, 0.671)'/>
    <stop offset='0%' stop-color='rgb(216, 216, 216)'/>
  </linearGradient>
  <polygon fill="url(#gradient)" points="211.096 158.812 207.924 168.063 428.097 168.592 427.568 159.341 412.503 160.398 412.238 163.834 386.072 163.57 383.428 156.434 372.327 156.434 375.763 161.455 345.631 161.984 339.023 151.94 325.279 152.733 327.13 159.34 316.293 156.433 312.592 148.768 299.641 148.24 302.284 142.16 287.482 142.16 285.897 136.874 278.232 136.609 280.611 143.482 269.245 143.217 266.073 147.183 269.774 151.94 258.144 151.675 257.881 145.332 251.801 145.332 252.329 152.733 242.813 154.584 236.206 162.249 223.519 159.34"/>
</svg>